<?xml version="1.0" encoding="utf-8"?>
<!-- Generator: Adobe Illustrator 27.5.0, SVG Export Plug-In . SVG Version: 6.00 Build 0)  -->
<svg version="1.1" id="Layer_1" xmlns="http://www.w3.org/2000/svg" xmlns:xlink="http://www.w3.org/1999/xlink" x="0px" y="0px"
	 viewBox="0 0 512 512" style="enable-background:new 0 0 512 512;" xml:space="preserve">
<g>
	<path d="M111.96,64c-17.7,0-32-14.3-32-32s14.3-32,32-32h96c53,0,96,43,96,96v306.71l73.4-73.4c12.5-12.5,32.8-12.5,45.3,0
		s12.5,32.8,0,45.3L294.66,502.62c-12.5,12.5-32.8,12.5-45.3,0L121.36,374.62c-12.5-12.5-12.5-32.8,0-45.3s32.8-12.5,45.3,0
		l73.3,73.4V96c0-17.7-14.3-32-32-32H111.96z"/>
</g>
</svg>
